<svg xmlns="http://www.w3.org/2000/svg" viewBox="0 0 64 64" role="img" aria-label="BBNote note logo">
  <defs>
    <linearGradient id="bbnote-favicon-paper" x1="10%" y1="8%" x2="88%" y2="92%">
      <stop offset="0%" stop-color="#dff4ff" />
      <stop offset="100%" stop-color="#8fd7ff" />
    </linearGradient>
    <linearGradient id="bbnote-favicon-fold" x1="0%" y1="0%" x2="100%" y2="100%">
      <stop offset="0%" stop-color="#f5fbff" />
      <stop offset="100%" stop-color="#bee9ff" />
    </linearGradient>
  </defs>
  <path
    id="bbnote-favicon-shadow"
    d="M17 8h22l11 11v30a7 7 0 0 1-7 7H17a7 7 0 0 1-7-7V15a7 7 0 0 1 7-7Z"
    fill="#18598e"
    opacity=".16"
    transform="translate(2 2)"
  />
  <path
    id="bbnote-favicon-note"
    d="M16 8h22l11 11v30a7 7 0 0 1-7 7H16a7 7 0 0 1-7-7V15a7 7 0 0 1 7-7Z"
    fill="url(#bbnote-favicon-paper)"
    stroke="#1c5f97"
    stroke-linejoin="round"
    stroke-width="3"
  />
  <path
    id="bbnote-favicon-fold"
    d="M38 8v11h11"
    fill="url(#bbnote-favicon-fold)"
    stroke="#1c5f97"
    stroke-linecap="round"
    stroke-linejoin="round"
    stroke-width="3"
  />
  <path
    d="M18 23h20"
    fill="none"
    opacity=".45"
    stroke="#5caee0"
    stroke-linecap="round"
    stroke-width="2.5"
  />
  <path
    d="M18 29h15"
    fill="none"
    opacity=".35"
    stroke="#5caee0"
    stroke-linecap="round"
    stroke-width="2.5"
  />
  <text
    x="18"
    y="46"
    fill="#0d4f83"
    font-family="'Open Sans', 'Segoe UI', sans-serif"
    font-size="18"
    font-weight="800"
    letter-spacing="-1.8"
  >BB</text>
</svg>
